# xmcd CD database file
#
# Track frame offsets:
#	150
#	17712
#	28505
#	31365
#	55237
#	67665
#	73435
#	76962
#	81315
#	92992
#	99470
#	113397
#	134255
#	150635
#	160805
#	180907
#	198952
#
# Disc length: 2884 seconds
#
# Revision: 3
# Processed by: cddbd v1.5.1PL0 Copyright (c) Steve Scherf et al.
# Submitted via: CDex 1.51
#
DISCID=d00b4211
DTITLE=モーガン・フィッシャー - アップフェルラント物語 ORIGINAL SOUNDTRACK ALBUM
DYEAR=1992
DGENRE=Anime
TTITLE0=ONE DAY AT A TIME(日本語バージョン)
TTITLE1=プロローグ〜メインタイトル
TTITLE2=事件の扉〜盗んだ財布
TTITLE3=陰謀〜追跡
TTITLE4=ヴェルの夢〜ヴェルとフリーダの出逢い
TTITLE5=幸福の青い鳥〜レーンホルム邸へ
TTITLE6=寂しい夕暮れ
TTITLE7=廃坑からの脱出〜オーバーケルテンの山地
TTITLE8=列車砲「台風」〜大国の脅威
TTITLE9=小国の勝利〜再会
TTITLE10=発進!「天下無敵」号〜空中戦〜飛翔
TTITLE11=黒獣アッチラ〜攻防戦
TTITLE12=シャルロッテンブルクの夜明け
TTITLE13=フライシャーとアリアーナ〜愛のロマンス
TTITLE14=大団円〜奇術師ヴェルギール・シュトラウス
TTITLE15=ONE DAY AT A TIME(英語バージョン)
TTITLE16=ONE DAY AT A TIME(インストゥルメンタル)
EXTD=YEAR: 1992
EXTT0=
EXTT1=
EXTT2=
EXTT3=
EXTT4=
EXTT5=
EXTT6=
EXTT7=
EXTT8=
EXTT9=
EXTT10=
EXTT11=
EXTT12=
EXTT13=
EXTT14=
EXTT15=
EXTT16=
PLAYORDER=
